<svg width="43" height="42" viewBox="0 0 43 42" fill="none" xmlns="http://www.w3.org/2000/svg">
<path d="M21.6364 1.5C10.8842 1.5 1.97559 10.2132 1.97559 21C1.97559 31.7868 10.8842 40.5 21.6364 40.5C32.3885 40.5 41.2972 31.7868 41.2972 21C41.2972 10.2132 32.3885 1.5 21.6364 1.5Z" stroke="white" stroke-width="3"/>
<g clip-path="url(#clip0_0_1)">
<path d="M29.9238 11H15.0762C13.3801 11 12 12.3144 12 13.9297V28.0703C12 29.6856 13.3801 31 15.0762 31H29.9238C31.6199 31 33 29.6856 33 28.0703V13.9297C33 12.3144 31.6199 11 29.9238 11ZM22.541 26.2344C19.4878 26.2344 17.0039 23.8688 17.0039 20.9609C17.0039 18.0531 19.4878 15.6875 22.541 15.6875C25.5943 15.6875 28.0781 18.0531 28.0781 20.9609C28.0781 23.8688 25.5943 26.2344 22.541 26.2344ZM28.6934 16.8594C27.6757 16.8594 26.8477 16.0708 26.8477 15.1016C26.8477 14.1323 27.6757 13.3438 28.6934 13.3438C29.7111 13.3438 30.5391 14.1323 30.5391 15.1016C30.5391 16.0708 29.7111 16.8594 28.6934 16.8594Z" fill="white"/>
<path d="M28.6934 14.5156C28.3539 14.5156 28.0781 14.7782 28.0781 15.1016C28.0781 15.4249 28.3539 15.6875 28.6934 15.6875C29.0329 15.6875 29.3086 15.4249 29.3086 15.1016C29.3086 14.7782 29.0329 14.5156 28.6934 14.5156Z" fill="white"/>
<path d="M22.541 16.8594C20.1666 16.8594 18.2344 18.6996 18.2344 20.9609C18.2344 23.2223 20.1666 25.0625 22.541 25.0625C24.9154 25.0625 26.8477 23.2223 26.8477 20.9609C26.8477 18.6996 24.9154 16.8594 22.541 16.8594Z" fill="white"/>
</g>
<defs>
<clipPath id="clip0_0_1">
<rect width="21" height="20" fill="white" transform="translate(12 11)"/>
</clipPath>
</defs>
</svg>
